<svg width="848" height="471" viewBox="0 0 848 471" fill="none" xmlns="http://www.w3.org/2000/svg">
<rect x="220" y="143" width="428" height="111" stroke="#0865C1" stroke-width="2"/>
<line x1="455" y1="4.37114e-08" x2="455" y2="144" stroke="#0865C1" stroke-width="2"/>
<line x1="456" y1="41" x2="266" y2="41" stroke="#0865C1" stroke-width="2"/>
<line x1="579" y1="126" y2="126" stroke="#0865C1" stroke-width="2"/>
<line x1="1" y1="262" x2="1.00001" y2="126" stroke="#0865C1" stroke-width="2"/>
<line x1="307" y1="263" y2="263" stroke="#0865C1" stroke-width="2"/>
<line x1="265" y1="142" x2="265" y2="40" stroke="#0865C1" stroke-width="2"/>
<line x1="579" y1="240" x2="579" y2="125" stroke="#0865C1" stroke-width="2"/>
<line x1="433" y1="407" x2="433" y2="255" stroke="#0865C1" stroke-width="2"/>
<circle cx="301" cy="258" r="20" fill="#5D8966"/>
<g clip-path="url(#clip0_4_290)">
<path d="M311.141 258.859H301.859V268.141C301.859 268.615 301.475 269 301 269C300.525 269 300.141 268.615 300.141 268.141V258.859H290.859C290.385 258.859 290 258.475 290 258C290 257.525 290.385 257.141 290.859 257.141H300.141V247.859C300.141 247.385 300.525 247 301 247C301.475 247 301.859 247.385 301.859 247.859V257.141H311.141C311.615 257.141 312 257.525 312 258C312 258.475 311.615 258.859 311.141 258.859Z" fill="white"/>
</g>
<circle cx="579" cy="258" r="20" fill="#5D8966"/>
<g clip-path="url(#clip1_4_290)">
<path d="M589.141 258.859H579.859V268.141C579.859 268.615 579.475 269 579 269C578.525 269 578.141 268.615 578.141 268.141V258.859H568.859C568.385 258.859 568 258.475 568 258C568 257.525 568.385 257.141 568.859 257.141H578.141V247.859C578.141 247.385 578.525 247 579 247C579.475 247 579.859 247.385 579.859 247.859V257.141H589.141C589.615 257.141 590 257.525 590 258C590 258.475 589.615 258.859 589.141 258.859Z" fill="white"/>
</g>
<rect x="179" y="56" width="184" height="56" rx="10" fill="#5D8966"/>
<path d="M207.497 77.274C203.861 77.274 201.089 79.938 201.089 83.7C201.089 87.462 203.861 90.108 207.515 90.108C210.863 90.108 213.149 87.768 213.653 85.212V83.016H206.849V84.942H211.169C210.791 86.724 209.549 87.84 207.605 87.84C205.265 87.84 203.681 86.256 203.681 83.7C203.681 81.198 205.247 79.596 207.497 79.596C208.829 79.596 209.873 80.154 210.449 81.216H213.347C212.537 78.696 210.305 77.274 207.497 77.274ZM219.801 81.936C221.097 81.936 222.141 82.764 222.177 84.078H217.443C217.641 82.71 218.595 81.936 219.801 81.936ZM224.535 86.868H221.817C221.493 87.534 220.899 88.074 219.819 88.074C218.559 88.074 217.551 87.246 217.425 85.77H224.715C224.769 85.446 224.787 85.122 224.787 84.798C224.787 81.828 222.753 79.866 219.873 79.866C216.921 79.866 214.869 81.864 214.869 85.014C214.869 88.146 216.975 90.162 219.873 90.162C222.339 90.162 223.995 88.704 224.535 86.868ZM227.023 86.904C227.023 89.19 228.301 90 230.209 90H231.793V87.876H230.623C229.831 87.876 229.561 87.588 229.561 86.922V82.098H231.793V80.028H229.561V77.562H227.023V80.028H225.835V82.098H227.023V86.904ZM233.605 90H236.125V80.028H233.605V90ZM234.883 78.84C235.765 78.84 236.431 78.192 236.431 77.364C236.431 76.536 235.765 75.888 234.883 75.888C233.983 75.888 233.335 76.536 233.335 77.364C233.335 78.192 233.983 78.84 234.883 78.84ZM245.599 90H248.119V84.15C248.119 81.396 246.463 79.884 244.141 79.884C242.863 79.884 241.783 80.424 241.135 81.27V80.028H238.615V90H241.135V84.492C241.135 82.89 242.017 82.026 243.385 82.026C244.717 82.026 245.599 82.89 245.599 84.492V90ZM249.867 84.978C249.867 88.092 251.883 90.162 254.421 90.162C255.987 90.162 257.121 89.388 257.715 88.524V90.072C257.715 91.926 256.635 92.718 255.249 92.718C253.989 92.718 253.053 92.124 252.801 91.224H250.299C250.551 93.51 252.513 94.914 255.321 94.914C258.597 94.914 260.253 92.772 260.253 90.072V80.028H257.715V81.45C257.121 80.586 255.987 79.866 254.421 79.866C251.883 79.866 249.867 81.864 249.867 84.978ZM257.715 85.014C257.715 86.904 256.455 87.948 255.069 87.948C253.719 87.948 252.441 86.868 252.441 84.978C252.441 83.088 253.719 82.08 255.069 82.08C256.455 82.08 257.715 83.124 257.715 85.014ZM275.23 77.418V86.058L269.524 77.418H267.004V90H269.524V81.378L275.23 90H277.75V77.418H275.23ZM284.524 81.936C285.82 81.936 286.864 82.764 286.9 84.078H282.166C282.364 82.71 283.318 81.936 284.524 81.936ZM289.258 86.868H286.54C286.216 87.534 285.622 88.074 284.542 88.074C283.282 88.074 282.274 87.246 282.148 85.77H289.438C289.492 85.446 289.51 85.122 289.51 84.798C289.51 81.828 287.476 79.866 284.596 79.866C281.644 79.866 279.592 81.864 279.592 85.014C279.592 88.146 281.698 90.162 284.596 90.162C287.062 90.162 288.718 88.704 289.258 86.868ZM291.745 86.904C291.745 89.19 293.023 90 294.931 90H296.515V87.876H295.345C294.553 87.876 294.283 87.588 294.283 86.922V82.098H296.515V80.028H294.283V77.562H291.745V80.028H290.557V82.098H291.745V86.904ZM300.146 90H302.882L304.7 83.034L306.518 90H309.236L312.152 80.028H309.74L307.976 87.606L306.104 80.028H303.44L301.532 87.624L299.768 80.028H297.212L300.146 90ZM323.145 85.014C323.145 81.864 320.895 79.866 318.015 79.866C315.135 79.866 312.885 81.864 312.885 85.014C312.885 88.146 315.063 90.162 317.943 90.162C320.841 90.162 323.145 88.146 323.145 85.014ZM315.441 85.014C315.441 83.016 316.647 82.062 317.979 82.062C319.311 82.062 320.553 83.016 320.553 85.014C320.553 86.994 319.275 87.966 317.943 87.966C316.593 87.966 315.441 86.994 315.441 85.014ZM327.514 85.032C327.514 83.106 328.414 82.53 329.908 82.53H330.574V79.884C329.188 79.884 328.144 80.55 327.514 81.576V80.028H324.994V90H327.514V85.032ZM332.271 90H334.791V85.752L338.175 90H341.451L337.023 85.032L341.415 80.028H338.139L334.791 84.258V76.68H332.271V90Z" fill="white"/>
<rect x="159" y="171" width="126" height="56" rx="10" fill="#5D8966"/>
<path d="M193.787 192.418H186.497V205H193.787V202.948H189.017V199.618H193.247V197.62H189.017V194.47H193.787V192.418ZM201.585 205H204.429L201.117 199.996L204.393 195.028H201.693L199.857 198.106L197.823 195.028H194.979L198.273 199.996L195.015 205H197.715L199.533 201.904L201.585 205ZM208.318 196.468V195.028H205.798V209.752H208.318V203.578C208.93 204.388 210.046 205.162 211.612 205.162C214.168 205.162 216.166 203.092 216.166 199.978C216.166 196.864 214.168 194.866 211.612 194.866C210.064 194.866 208.912 195.622 208.318 196.468ZM213.592 199.978C213.592 201.868 212.314 202.948 210.946 202.948C209.596 202.948 208.318 201.904 208.318 200.014C208.318 198.124 209.596 197.08 210.946 197.08C212.314 197.08 213.592 198.088 213.592 199.978ZM222.281 196.936C223.577 196.936 224.621 197.764 224.657 199.078H219.923C220.121 197.71 221.075 196.936 222.281 196.936ZM227.015 201.868H224.297C223.973 202.534 223.379 203.074 222.299 203.074C221.039 203.074 220.031 202.246 219.905 200.77H227.195C227.249 200.446 227.267 200.122 227.267 199.798C227.267 196.828 225.233 194.866 222.353 194.866C219.401 194.866 217.349 196.864 217.349 200.014C217.349 203.146 219.455 205.162 222.353 205.162C224.819 205.162 226.475 203.704 227.015 201.868ZM231.626 200.032C231.626 198.106 232.526 197.53 234.02 197.53H234.686V194.884C233.3 194.884 232.256 195.55 231.626 196.576V195.028H229.106V205H231.626V200.032ZM236.78 201.904C236.78 204.19 238.058 205 239.966 205H241.55V202.876H240.38C239.588 202.876 239.318 202.588 239.318 201.922V197.098H241.55V195.028H239.318V192.562H236.78V195.028H235.592V197.098H236.78V201.904ZM247.219 204.82H256.111V202.732H250.801C252.889 200.968 255.823 198.592 255.823 195.55C255.823 193.264 254.401 191.59 251.575 191.59C249.217 191.59 247.291 192.976 247.201 195.982H249.649C249.667 194.596 250.333 193.732 251.539 193.732C252.781 193.732 253.303 194.524 253.303 195.694C253.303 198.106 250.189 200.428 247.219 202.948V204.82Z" fill="white"/>
<rect x="587" y="171" width="126" height="56" rx="10" fill="#5D8966"/>
<path d="M608.753 194.308V197.602H613.253V199.546H608.753V202.966H613.793V205H606.215V192.292H613.793V194.308H608.753ZM621.738 205L619.47 201.796L617.562 205H614.772L618.066 199.798L614.7 195.028H617.544L619.758 198.178L621.666 195.028H624.456L621.108 200.086L624.582 205H621.738ZM631.842 194.902C632.682 194.902 633.438 195.106 634.11 195.514C634.782 195.922 635.304 196.516 635.676 197.296C636.06 198.064 636.252 198.97 636.252 200.014C636.252 201.058 636.06 201.97 635.676 202.75C635.304 203.518 634.782 204.106 634.11 204.514C633.438 204.922 632.682 205.126 631.842 205.126C631.002 205.126 630.282 204.928 629.682 204.532C629.094 204.124 628.674 203.584 628.422 202.912V209.752H625.884V195.028H628.422V197.098C628.674 196.426 629.094 195.892 629.682 195.496C630.282 195.1 631.002 194.902 631.842 194.902ZM631.05 197.116C630.282 197.116 629.646 197.38 629.142 197.908C628.65 198.424 628.404 199.126 628.404 200.014C628.404 200.89 628.65 201.592 629.142 202.12C629.646 202.636 630.282 202.894 631.05 202.894C631.842 202.894 632.478 202.642 632.958 202.138C633.438 201.622 633.678 200.914 633.678 200.014C633.678 199.114 633.438 198.406 632.958 197.89C632.478 197.374 631.842 197.116 631.05 197.116ZM647.426 199.636C647.426 199.888 647.396 200.176 647.336 200.5H640.028C640.064 201.388 640.304 202.042 640.748 202.462C641.192 202.882 641.744 203.092 642.404 203.092C642.992 203.092 643.478 202.948 643.862 202.66C644.258 202.372 644.51 201.982 644.618 201.49H647.3C647.168 202.186 646.886 202.81 646.454 203.362C646.022 203.914 645.464 204.346 644.78 204.658C644.108 204.97 643.358 205.126 642.53 205.126C641.558 205.126 640.694 204.922 639.938 204.514C639.182 204.094 638.594 203.5 638.174 202.732C637.754 201.964 637.544 201.058 637.544 200.014C637.544 198.97 637.754 198.064 638.174 197.296C638.594 196.516 639.182 195.922 639.938 195.514C640.694 195.106 641.558 194.902 642.53 194.902C643.514 194.902 644.372 195.106 645.104 195.514C645.848 195.922 646.418 196.486 646.814 197.206C647.222 197.914 647.426 198.724 647.426 199.636ZM644.87 199.384C644.906 198.568 644.69 197.95 644.222 197.53C643.766 197.11 643.202 196.9 642.53 196.9C641.846 196.9 641.27 197.11 640.802 197.53C640.334 197.95 640.076 198.568 640.028 199.384H644.87ZM651.766 196.936C652.138 196.3 652.63 195.802 653.242 195.442C653.854 195.07 654.538 194.884 655.294 194.884V197.602H654.556C652.696 197.602 651.766 198.466 651.766 200.194V205H649.228V195.028H651.766V196.936ZM662.027 202.822V205H660.695C659.579 205 658.721 204.73 658.121 204.19C657.533 203.65 657.239 202.75 657.239 201.49V197.17H655.853V195.028H657.239V192.562H659.777V195.028H662.009V197.17H659.777V201.526C659.777 202.006 659.873 202.342 660.065 202.534C660.257 202.726 660.581 202.822 661.037 202.822H662.027ZM673.713 194.884C674.865 194.884 675.783 195.262 676.467 196.018C677.151 196.774 677.493 197.836 677.493 199.204V205H674.973V199.492C674.973 198.7 674.769 198.088 674.361 197.656C673.953 197.212 673.395 196.99 672.687 196.99C671.967 196.99 671.391 197.224 670.959 197.692C670.527 198.16 670.311 198.832 670.311 199.708V205H667.773V195.028H670.311V197.026C670.575 196.354 671.007 195.832 671.607 195.46C672.219 195.076 672.921 194.884 673.713 194.884ZM686.188 197.53V199.636H678.538V197.53H686.188ZM688.212 194.668V192.292H692.784V205H690.12V194.668H688.212Z" fill="white"/>
<rect x="294" y="171" width="126" height="56" rx="10" fill="#6A6A6A"/>
<path d="M328.567 192.418H321.277V205H328.567V202.948H323.797V199.618H328.027V197.62H323.797V194.47H328.567V192.418ZM336.365 205H339.209L335.897 199.996L339.173 195.028H336.473L334.637 198.106L332.603 195.028H329.759L333.053 199.996L329.795 205H332.495L334.313 201.904L336.365 205ZM343.098 196.468V195.028H340.578V209.752H343.098V203.578C343.71 204.388 344.826 205.162 346.392 205.162C348.948 205.162 350.946 203.092 350.946 199.978C350.946 196.864 348.948 194.866 346.392 194.866C344.844 194.866 343.692 195.622 343.098 196.468ZM348.372 199.978C348.372 201.868 347.094 202.948 345.726 202.948C344.376 202.948 343.098 201.904 343.098 200.014C343.098 198.124 344.376 197.08 345.726 197.08C347.094 197.08 348.372 198.088 348.372 199.978ZM357.061 196.936C358.357 196.936 359.401 197.764 359.437 199.078H354.703C354.901 197.71 355.855 196.936 357.061 196.936ZM361.795 201.868H359.077C358.753 202.534 358.159 203.074 357.079 203.074C355.819 203.074 354.811 202.246 354.685 200.77H361.975C362.029 200.446 362.047 200.122 362.047 199.798C362.047 196.828 360.013 194.866 357.133 194.866C354.181 194.866 352.129 196.864 352.129 200.014C352.129 203.146 354.235 205.162 357.133 205.162C359.599 205.162 361.255 203.704 361.795 201.868ZM366.407 200.032C366.407 198.106 367.307 197.53 368.801 197.53H369.467V194.884C368.081 194.884 367.037 195.55 366.407 196.576V195.028H363.887V205H366.407V200.032ZM371.56 201.904C371.56 204.19 372.838 205 374.746 205H376.33V202.876H375.16C374.368 202.876 374.098 202.588 374.098 201.922V197.098H376.33V195.028H374.098V192.562H371.56V195.028H370.372V197.098H371.56V201.904ZM382.179 195.334H384.645C384.735 194.506 385.257 193.714 386.481 193.714C387.633 193.714 388.263 194.326 388.263 195.352C388.263 196.648 387.183 197.062 385.707 197.062H385.185V199.132H385.707C387.579 199.132 388.515 199.672 388.515 201.148C388.515 202.192 387.867 202.984 386.607 202.984C385.257 202.984 384.501 202.174 384.447 201.04H381.999C382.107 203.794 384.069 205.09 386.661 205.09C389.415 205.09 390.927 203.506 390.927 201.364C390.927 199.582 390.045 198.502 388.713 198.088V198.016C389.667 197.692 390.693 196.684 390.693 195.046C390.693 193.102 389.253 191.572 386.553 191.572C384.033 191.572 382.305 192.904 382.179 195.334Z" fill="white"/>
<rect x="722" y="171" width="126" height="56" rx="10" fill="#6A6A6A"/>
<path d="M750.934 194.308V197.602H755.434V199.546H750.934V202.966H755.974V205H748.396V192.292H755.974V194.308H750.934ZM763.919 205L761.651 201.796L759.743 205H756.953L760.247 199.798L756.881 195.028H759.725L761.939 198.178L763.847 195.028H766.637L763.289 200.086L766.763 205H763.919ZM774.024 194.902C774.864 194.902 775.62 195.106 776.292 195.514C776.964 195.922 777.486 196.516 777.858 197.296C778.242 198.064 778.434 198.97 778.434 200.014C778.434 201.058 778.242 201.97 777.858 202.75C777.486 203.518 776.964 204.106 776.292 204.514C775.62 204.922 774.864 205.126 774.024 205.126C773.184 205.126 772.464 204.928 771.864 204.532C771.276 204.124 770.856 203.584 770.604 202.912V209.752H768.066V195.028H770.604V197.098C770.856 196.426 771.276 195.892 771.864 195.496C772.464 195.1 773.184 194.902 774.024 194.902ZM773.232 197.116C772.464 197.116 771.828 197.38 771.324 197.908C770.832 198.424 770.586 199.126 770.586 200.014C770.586 200.89 770.832 201.592 771.324 202.12C771.828 202.636 772.464 202.894 773.232 202.894C774.024 202.894 774.66 202.642 775.14 202.138C775.62 201.622 775.86 200.914 775.86 200.014C775.86 199.114 775.62 198.406 775.14 197.89C774.66 197.374 774.024 197.116 773.232 197.116ZM789.608 199.636C789.608 199.888 789.578 200.176 789.518 200.5H782.21C782.246 201.388 782.486 202.042 782.93 202.462C783.374 202.882 783.926 203.092 784.586 203.092C785.174 203.092 785.66 202.948 786.044 202.66C786.44 202.372 786.692 201.982 786.8 201.49H789.482C789.35 202.186 789.068 202.81 788.636 203.362C788.204 203.914 787.646 204.346 786.962 204.658C786.29 204.97 785.54 205.126 784.712 205.126C783.74 205.126 782.876 204.922 782.12 204.514C781.364 204.094 780.776 203.5 780.356 202.732C779.936 201.964 779.726 201.058 779.726 200.014C779.726 198.97 779.936 198.064 780.356 197.296C780.776 196.516 781.364 195.922 782.12 195.514C782.876 195.106 783.74 194.902 784.712 194.902C785.696 194.902 786.554 195.106 787.286 195.514C788.03 195.922 788.6 196.486 788.996 197.206C789.404 197.914 789.608 198.724 789.608 199.636ZM787.052 199.384C787.088 198.568 786.872 197.95 786.404 197.53C785.948 197.11 785.384 196.9 784.712 196.9C784.028 196.9 783.452 197.11 782.984 197.53C782.516 197.95 782.258 198.568 782.21 199.384H787.052ZM793.948 196.936C794.32 196.3 794.812 195.802 795.424 195.442C796.036 195.07 796.72 194.884 797.476 194.884V197.602H796.738C794.878 197.602 793.948 198.466 793.948 200.194V205H791.41V195.028H793.948V196.936ZM804.209 202.822V205H802.877C801.761 205 800.903 204.73 800.303 204.19C799.715 203.65 799.421 202.75 799.421 201.49V197.17H798.035V195.028H799.421V192.562H801.959V195.028H804.191V197.17H801.959V201.526C801.959 202.006 802.055 202.342 802.247 202.534C802.439 202.726 802.763 202.822 803.219 202.822H804.209ZM815.895 194.884C817.047 194.884 817.965 195.262 818.649 196.018C819.333 196.774 819.675 197.836 819.675 199.204V205H817.155V199.492C817.155 198.7 816.951 198.088 816.543 197.656C816.135 197.212 815.577 196.99 814.869 196.99C814.149 196.99 813.573 197.224 813.141 197.692C812.709 198.16 812.493 198.832 812.493 199.708V205H809.955V195.028H812.493V197.026C812.757 196.354 813.189 195.832 813.789 195.46C814.401 195.076 815.103 194.884 815.895 194.884Z" fill="white"/>
<rect x="24" y="171" width="126" height="56" rx="10" fill="#6A6A6A"/>
<path d="M58.5672 192.418H51.2772V205H58.5672V202.948H53.7972V199.618H58.0272V197.62H53.7972V194.47H58.5672V192.418ZM66.3652 205H69.2092L65.8972 199.996L69.1732 195.028H66.4732L64.6372 198.106L62.6032 195.028H59.7592L63.0532 199.996L59.7952 205H62.4952L64.3132 201.904L66.3652 205ZM73.0979 196.468V195.028H70.5779V209.752H73.0979V203.578C73.7099 204.388 74.8259 205.162 76.3919 205.162C78.9479 205.162 80.9459 203.092 80.9459 199.978C80.9459 196.864 78.9479 194.866 76.3919 194.866C74.8439 194.866 73.6919 195.622 73.0979 196.468ZM78.3719 199.978C78.3719 201.868 77.0939 202.948 75.7259 202.948C74.3759 202.948 73.0979 201.904 73.0979 200.014C73.0979 198.124 74.3759 197.08 75.7259 197.08C77.0939 197.08 78.3719 198.088 78.3719 199.978ZM87.0612 196.936C88.3572 196.936 89.4012 197.764 89.4372 199.078H84.7032C84.9012 197.71 85.8552 196.936 87.0612 196.936ZM91.7952 201.868H89.0772C88.7532 202.534 88.1592 203.074 87.0792 203.074C85.8192 203.074 84.8112 202.246 84.6852 200.77H91.9752C92.0292 200.446 92.0472 200.122 92.0472 199.798C92.0472 196.828 90.0132 194.866 87.1332 194.866C84.1812 194.866 82.1292 196.864 82.1292 200.014C82.1292 203.146 84.2352 205.162 87.1332 205.162C89.5992 205.162 91.2552 203.704 91.7952 201.868ZM96.4065 200.032C96.4065 198.106 97.3065 197.53 98.8005 197.53H99.4665V194.884C98.0805 194.884 97.0365 195.55 96.4065 196.576V195.028H93.8865V205H96.4065V200.032ZM101.56 201.904C101.56 204.19 102.838 205 104.746 205H106.33V202.876H105.16C104.368 202.876 104.098 202.588 104.098 201.922V197.098H106.33V195.028H104.098V192.562H101.56V195.028H100.372V197.098H101.56V201.904ZM112.179 195.334H114.645C114.735 194.506 115.257 193.714 116.481 193.714C117.633 193.714 118.263 194.326 118.263 195.352C118.263 196.648 117.183 197.062 115.707 197.062H115.185V199.132H115.707C117.579 199.132 118.515 199.672 118.515 201.148C118.515 202.192 117.867 202.984 116.607 202.984C115.257 202.984 114.501 202.174 114.447 201.04H111.999C112.107 203.794 114.069 205.09 116.661 205.09C119.415 205.09 120.927 203.506 120.927 201.364C120.927 199.582 120.045 198.502 118.713 198.088V198.016C119.667 197.692 120.693 196.684 120.693 195.046C120.693 193.102 119.253 191.572 116.553 191.572C114.033 191.572 112.305 192.904 112.179 195.334Z" fill="white"/>
<circle cx="434" cy="312" r="27" fill="#5D8966"/>
<g clip-path="url(#clip2_4_290)">
<path d="M444.141 312.859H434.859V322.141C434.859 322.615 434.475 323 434 323C433.525 323 433.141 322.615 433.141 322.141V312.859H423.859C423.385 312.859 423 312.475 423 312C423 311.525 423.385 311.141 423.859 311.141H433.141V301.859C433.141 301.385 433.525 301 434 301C434.475 301 434.859 301.385 434.859 301.859V311.141H444.141C444.615 311.141 445 311.525 445 312C445 312.475 444.615 312.859 444.141 312.859Z" fill="white"/>
</g>
<circle cx="434" cy="431" r="40" fill="#5D8966"/>
<path d="M425.006 430.542C424.669 432.086 423.291 433.246 421.647 433.246C421.209 433.246 420.853 433.602 420.853 434.04C420.853 434.478 421.209 434.834 421.647 434.834C424.163 434.834 426.253 432.976 426.617 430.56C428.158 430.393 429.58 429.707 430.681 428.583C430.988 428.27 430.982 427.767 430.669 427.461C430.356 427.154 429.854 427.159 429.547 427.472C428.573 428.466 427.271 429.013 425.88 429.013C423.05 429.013 420.747 426.71 420.747 423.88C420.747 423.442 420.392 423.086 419.954 423.086C419.515 423.086 419.16 423.442 419.16 423.88C419.16 427.29 421.712 430.112 425.006 430.542Z" fill="white"/>
<path d="M428.367 437.427C428.367 436.988 428.012 436.633 427.573 436.633C423.868 436.633 420.853 439.648 420.853 443.353C420.853 443.391 420.855 443.43 420.855 443.468C420.56 443.428 420.259 443.406 419.954 443.406C419.515 443.406 419.16 443.761 419.16 444.2C419.16 444.638 419.515 444.994 419.954 444.994C422.784 444.994 425.086 447.296 425.086 450.126C425.086 450.565 425.442 450.92 425.88 450.92C426.318 450.92 426.674 450.565 426.674 450.126C426.674 447.31 424.932 444.894 422.469 443.896C422.45 443.717 422.441 443.535 422.441 443.353C422.441 440.523 424.743 438.22 427.573 438.22C428.012 438.22 428.367 437.865 428.367 437.427Z" fill="white"/>
<path d="M455.46 430.653C455.46 428.846 454.738 427.134 453.462 425.874C453.665 425.228 453.767 424.559 453.767 423.88C453.767 420.613 451.422 417.884 448.328 417.284C448.564 416.694 448.687 416.062 448.687 415.414C448.687 413.344 447.429 411.563 445.638 410.793C442.654 408.416 439.391 407 436.887 407C435.495 407 434.26 407.685 433.5 408.734C432.74 407.685 431.505 407 430.113 407C427.609 407 424.346 408.416 421.362 410.793C419.571 411.563 418.313 413.344 418.313 415.414C418.313 416.062 418.436 416.694 418.672 417.284C415.578 417.884 413.233 420.613 413.233 423.88C413.233 424.559 413.335 425.228 413.538 425.874C412.262 427.134 411.54 428.846 411.54 430.653C411.54 432.066 411.979 433.378 412.727 434.461C411.95 435.584 411.54 436.894 411.54 438.273C411.54 440.717 412.872 442.955 414.981 444.136C414.945 444.438 414.927 444.742 414.927 445.046C414.927 448.342 417.077 451.257 420.196 452.25C421.553 454.572 424.024 456 426.727 456C429.69 456 432.258 454.288 433.5 451.801C434.742 454.288 437.31 456 440.273 456C442.976 456 445.447 454.572 446.804 452.25C449.923 451.256 452.073 448.342 452.073 445.046C452.073 444.742 452.055 444.438 452.019 444.136C454.128 442.955 455.46 440.717 455.46 438.273C455.46 436.894 455.05 435.584 454.273 434.461C455.021 433.378 455.46 432.066 455.46 430.653ZM426.727 454.413C424.501 454.413 422.473 453.186 421.434 451.21C421.331 451.015 421.152 450.871 420.938 450.814C418.333 450.112 416.514 447.741 416.514 445.046C416.514 444.643 416.555 444.239 416.635 443.846C416.709 443.481 416.52 443.114 416.18 442.962C414.325 442.138 413.127 440.297 413.127 438.273C413.127 437.353 413.366 436.473 413.822 435.693C415.007 436.738 416.56 437.374 418.26 437.374C418.699 437.374 419.054 437.018 419.054 436.58C419.054 436.141 418.699 435.786 418.26 435.786C415.43 435.786 413.127 433.484 413.127 430.653C413.127 429.13 413.8 427.694 414.972 426.714C415.236 426.493 415.328 426.126 415.198 425.807C414.948 425.189 414.821 424.541 414.821 423.88C414.821 421.05 417.123 418.747 419.954 418.747C422.784 418.747 425.086 421.05 425.086 423.88C425.086 424.319 425.442 424.674 425.88 424.674C426.318 424.674 426.674 424.319 426.674 423.88C426.674 420.32 423.89 417.399 420.385 417.175C420.068 416.644 419.901 416.04 419.901 415.414C419.901 413.999 420.76 412.781 421.983 412.254C422.031 412.24 422.077 412.221 422.122 412.198C422.501 412.054 422.911 411.974 423.34 411.974C424.669 411.974 425.855 412.717 426.436 413.913C426.628 414.308 427.103 414.472 427.497 414.281C427.891 414.089 428.056 413.614 427.864 413.22C427.201 411.854 425.946 410.873 424.501 410.525C426.527 409.289 428.521 408.587 430.113 408.587C431.543 408.587 432.706 409.751 432.706 411.18V421.451C431.993 420.886 431.092 420.546 430.113 420.546C429.675 420.546 429.32 420.902 429.32 421.34C429.32 421.779 429.675 422.134 430.113 422.134C431.543 422.134 432.706 423.297 432.706 424.727V443.806C431.719 442.533 430.328 441.572 428.692 441.132C428.268 441.019 427.833 441.269 427.719 441.693C427.605 442.116 427.856 442.551 428.28 442.665C430.886 443.365 432.706 445.737 432.706 448.433C432.706 451.73 430.024 454.413 426.727 454.413ZM450.82 442.962C450.48 443.114 450.291 443.481 450.365 443.846C450.445 444.239 450.486 444.643 450.486 445.047C450.486 447.741 448.667 450.113 446.062 450.814C445.848 450.871 445.669 451.015 445.566 451.211C444.527 453.186 442.499 454.413 440.273 454.413C436.976 454.413 434.294 451.73 434.294 448.433C434.294 448.21 434.283 447.989 434.264 447.769C434.283 447.702 434.294 447.63 434.294 447.556V421.34C434.294 419.91 435.457 418.747 436.887 418.747C437.325 418.747 437.68 418.392 437.68 417.954C437.68 417.515 437.325 417.16 436.887 417.16C435.908 417.16 435.007 417.499 434.294 418.065V411.18C434.294 409.751 435.457 408.587 436.887 408.587C438.479 408.587 440.473 409.289 442.499 410.525C441.054 410.873 439.799 411.854 439.136 413.22C438.944 413.614 439.109 414.089 439.503 414.281C439.897 414.472 440.372 414.308 440.564 413.913C441.145 412.717 442.331 411.974 443.66 411.974C444.089 411.974 444.499 412.054 444.878 412.198C444.923 412.221 444.969 412.239 445.016 412.253C446.24 412.781 447.099 413.999 447.099 415.414C447.099 416.04 446.932 416.644 446.615 417.175C443.11 417.399 440.326 420.32 440.326 423.88C440.326 424.319 440.682 424.674 441.12 424.674C441.558 424.674 441.914 424.319 441.914 423.88C441.914 421.05 444.216 418.747 447.046 418.747C449.877 418.747 452.179 421.05 452.179 423.88C452.179 424.541 452.052 425.189 451.802 425.807C451.672 426.126 451.764 426.493 452.028 426.714C453.2 427.694 453.873 429.13 453.873 430.653C453.873 433.484 451.57 435.786 448.74 435.786C448.301 435.786 447.946 436.141 447.946 436.58C447.946 437.018 448.301 437.374 448.74 437.374C450.44 437.374 451.993 436.738 453.178 435.693C453.634 436.473 453.873 437.353 453.873 438.273C453.873 440.297 452.675 442.138 450.82 442.962Z" fill="white"/>
<path d="M447.046 432.4C445.402 432.4 444.025 431.24 443.687 429.695C446.981 429.265 449.533 426.443 449.533 423.033C449.533 422.595 449.178 422.24 448.74 422.24C448.301 422.24 447.946 422.595 447.946 423.033C447.946 425.864 445.643 428.166 442.813 428.166C441.422 428.166 440.12 427.619 439.147 426.625C438.84 426.312 438.337 426.307 438.024 426.614C437.711 426.921 437.706 427.423 438.013 427.736C439.113 428.86 440.535 429.546 442.076 429.713C442.44 432.129 444.53 433.987 447.046 433.987C447.485 433.987 447.84 433.632 447.84 433.193C447.84 432.755 447.485 432.4 447.046 432.4Z" fill="white"/>
<path d="M444.506 441.713C444.201 441.713 443.9 441.735 443.605 441.775C443.606 441.736 443.607 441.698 443.607 441.66C443.607 437.954 440.592 434.939 436.887 434.939C436.448 434.939 436.093 435.295 436.093 435.733C436.093 436.172 436.448 436.527 436.887 436.527C439.717 436.527 442.019 438.83 442.019 441.66C442.019 441.841 442.01 442.023 441.991 442.203C439.528 443.201 437.786 445.617 437.786 448.433C437.786 448.871 438.142 449.227 438.58 449.227C439.018 449.227 439.374 448.871 439.374 448.433C439.374 445.603 441.676 443.3 444.506 443.3C444.945 443.3 445.3 442.945 445.3 442.506C445.3 442.068 444.945 441.713 444.506 441.713Z" fill="white"/>
<path d="M336.414 41.6493L349.985 50.2205C350.281 50.3548 350.634 50.2748 350.84 50.0205C351.047 49.7662 351.054 49.4048 350.857 49.1434L344.75 41.0007L350.857 32.8581C351.054 32.5967 351.047 32.2338 350.841 31.981C350.702 31.8081 350.495 31.7153 350.285 31.7153C350.184 31.7153 350.082 31.7367 349.987 31.781L336.416 40.3522C336.161 40.4693 336 40.7222 336 41.0007C336 41.2793 336.161 41.5322 336.414 41.6493Z" fill="#5D8966"/>
<path d="M57.4143 126.649L70.9853 135.221C71.281 135.355 71.6338 135.275 71.8395 135.021C72.0467 134.766 72.0538 134.405 71.8567 134.143L65.7497 126.001L71.8567 117.858C72.0538 117.597 72.0467 117.234 71.841 116.981C71.7024 116.808 71.4952 116.715 71.2853 116.715C71.1838 116.715 71.0824 116.737 70.9867 116.781L57.4157 125.352C57.1614 125.469 57 125.722 57 126.001C57 126.279 57.1614 126.532 57.4143 126.649Z" fill="#5D8966"/>
<path d="M146.586 263.649L133.015 272.221C132.719 272.355 132.366 272.275 132.16 272.021C131.953 271.766 131.946 271.405 132.143 271.143L138.25 263.001L132.143 254.858C131.946 254.597 131.953 254.234 132.159 253.981C132.298 253.808 132.505 253.715 132.715 253.715C132.816 253.715 132.918 253.737 133.013 253.781L146.584 262.352C146.839 262.469 147 262.722 147 263.001C147 263.279 146.839 263.532 146.586 263.649Z" fill="#5D8966"/>
<path d="M391.586 254.649L378.015 263.221C377.719 263.355 377.366 263.275 377.16 263.021C376.953 262.766 376.946 262.405 377.143 262.143L383.25 254.001L377.143 245.858C376.946 245.597 376.953 245.234 377.159 244.981C377.298 244.808 377.505 244.715 377.715 244.715C377.816 244.715 377.918 244.737 378.013 244.781L391.584 253.352C391.839 253.469 392 253.722 392 254.001C392 254.279 391.839 254.532 391.586 254.649Z" fill="#5D8966"/>
<path d="M491.414 253.351L504.985 244.779C505.281 244.645 505.634 244.725 505.84 244.979C506.047 245.234 506.054 245.595 505.857 245.857L499.75 253.999L505.857 262.142C506.054 262.403 506.047 262.766 505.841 263.019C505.702 263.192 505.495 263.285 505.285 263.285C505.184 263.285 505.082 263.263 504.987 263.219L491.416 254.648C491.161 254.531 491 254.278 491 253.999C491 253.721 491.161 253.468 491.414 253.351Z" fill="#5D8966"/>
<g clip-path="url(#clip3_4_290)">
<path d="M579.649 170.586L588.22 157.015C588.355 156.719 588.275 156.366 588.02 156.16C587.766 155.953 587.405 155.946 587.143 156.143L579.001 162.25L570.858 156.143C570.597 155.946 570.234 155.953 569.981 156.159C569.808 156.298 569.715 156.505 569.715 156.715C569.715 156.816 569.737 156.918 569.781 157.013L578.352 170.584C578.469 170.839 578.722 171 579.001 171C579.279 171 579.532 170.839 579.649 170.586Z" fill="#5D8966"/>
</g>
<g clip-path="url(#clip4_4_290)">
<path d="M455.649 87.5857L464.22 74.0147C464.355 73.719 464.275 73.3662 464.02 73.1605C463.766 72.9533 463.405 72.9462 463.143 73.1433L455.001 79.2503L446.858 73.1433C446.597 72.9462 446.234 72.9533 445.981 73.159C445.808 73.2976 445.715 73.5048 445.715 73.7147C445.715 73.8162 445.737 73.9176 445.781 74.0133L454.352 87.5843C454.469 87.8386 454.722 88 455.001 88C455.279 88 455.532 87.8386 455.649 87.5857Z" fill="#5D8966"/>
</g>
<g clip-path="url(#clip5_4_290)">
<path d="M433.649 372.586L442.22 359.015C442.355 358.719 442.275 358.366 442.02 358.16C441.766 357.953 441.405 357.946 441.143 358.143L433.001 364.25L424.858 358.143C424.597 357.946 424.234 357.953 423.981 358.159C423.808 358.298 423.715 358.505 423.715 358.715C423.715 358.816 423.737 358.918 423.781 359.013L432.352 372.584C432.469 372.839 432.722 373 433.001 373C433.279 373 433.532 372.839 433.649 372.586Z" fill="#5D8966"/>
</g>
<path d="M313.414 143.649L326.985 152.221C327.281 152.355 327.634 152.275 327.84 152.021C328.047 151.766 328.054 151.405 327.857 151.143L321.75 143.001L327.857 134.858C328.054 134.597 328.047 134.234 327.841 133.981C327.702 133.808 327.495 133.715 327.285 133.715C327.184 133.715 327.082 133.737 326.987 133.781L313.416 142.352C313.161 142.469 313 142.722 313 143.001C313 143.279 313.161 143.532 313.414 143.649Z" fill="#5D8966"/>
<path d="M387.586 126.649L374.015 135.221C373.719 135.355 373.366 135.275 373.16 135.021C372.953 134.766 372.946 134.405 373.143 134.143L379.25 126.001L373.143 117.858C372.946 117.597 372.953 117.234 373.159 116.981C373.298 116.808 373.505 116.715 373.715 116.715C373.816 116.715 373.918 116.737 374.013 116.781L387.584 125.352C387.839 125.469 388 125.722 388 126.001C388 126.279 387.839 126.532 387.586 126.649Z" fill="#5D8966"/>
<rect x="455" y="195" width="10" height="10" fill="#6A6A6A"/>
<rect x="480" y="195" width="10" height="10" fill="#6A6A6A"/>
<rect x="505" y="195" width="10" height="10" fill="#6A6A6A"/>
<rect x="530" y="195" width="10" height="10" fill="#6A6A6A"/>
<defs>
<clipPath id="clip0_4_290">
<rect width="22" height="22" fill="white" transform="matrix(1 0 0 -1 290 269)"/>
</clipPath>
<clipPath id="clip1_4_290">
<rect width="22" height="22" fill="white" transform="matrix(1 0 0 -1 568 269)"/>
</clipPath>
<clipPath id="clip2_4_290">
<rect width="22" height="22" fill="white" transform="matrix(1 0 0 -1 423 323)"/>
</clipPath>
<clipPath id="clip3_4_290">
<rect width="20" height="20" fill="white" transform="translate(589 156) rotate(90)"/>
</clipPath>
<clipPath id="clip4_4_290">
<rect width="20" height="20" fill="white" transform="translate(465 73) rotate(90)"/>
</clipPath>
<clipPath id="clip5_4_290">
<rect width="20" height="20" fill="white" transform="translate(443 358) rotate(90)"/>
</clipPath>
</defs>
</svg>
